<svg width="53" height="47" viewBox="0 0 53 47" fill="none" xmlns="http://www.w3.org/2000/svg">
<rect width="14" height="11" rx="2" transform="matrix(1 0 0 -1 0 47)" fill="white"/>
<rect width="31" height="11" rx="2" transform="matrix(1 0 0 -1 0 29)" fill="white"/>
<rect width="53" height="11" rx="2" transform="matrix(1 0 0 -1 0 11)" fill="white"/>
<path d="M46 37C46 38.1046 45.1046 39 44 39H42C40.8954 39 40 38.1046 40 37L40 22C40 20.8954 40.8954 20 42 20L44 20C45.1046 20 46 20.8954 46 22L46 37Z" fill="white"/>
<path d="M44.3571 45.7464C43.5908 46.4542 42.4092 46.4542 41.6429 45.7464L33.765 38.4691C32.4279 37.234 33.3019 35 35.1221 35L50.8779 35C52.6981 35 53.572 37.234 52.235 38.4691L44.3571 45.7464Z" fill="white"/>
</svg>
